<?xml version="1.0" encoding="utf-8"?>
<!-- Generator: Adobe Illustrator 24.1.2, SVG Export Plug-In . SVG Version: 6.00 Build 0)  -->
<svg version="1.1" id="Capa_1" xmlns="http://www.w3.org/2000/svg" xmlns:xlink="http://www.w3.org/1999/xlink" x="0px" y="0px"
	 viewBox="0 0 326.7 326.7" style="enable-background:new 0 0 326.7 326.7;" xml:space="preserve">
<g id="XMLID_191_">
	<radialGradient id="SVGID_1_" cx="163.3405" cy="163.3405" r="163.3405" gradientUnits="userSpaceOnUse">
		<stop  offset="0" style="stop-color:#30303D"/>
		<stop  offset="1" style="stop-color:#1A1A23"/>
	</radialGradient>
	<rect style="fill:url(#SVGID_1_);" width="326.7" height="326.7"/>
	<linearGradient id="XMLID_3_" gradientUnits="userSpaceOnUse" x1="38.4174" y1="142.256" x2="288.2636" y2="142.256">
		<stop  offset="0" style="stop-color:#FFEB88"/>
		<stop  offset="0.2473" style="stop-color:#CF9A3C"/>
		<stop  offset="0.3925" style="stop-color:#8B4E10"/>
		<stop  offset="0.6075" style="stop-color:#C18022"/>
		<stop  offset="0.8763" style="stop-color:#7A3E0A"/>
		<stop  offset="1" style="stop-color:#C68A2C"/>
	</linearGradient>
	<path id="XMLID_195_" style="fill:url(#XMLID_3_);" d="M163.3,276c-11.9,0-23.7-3.1-34-9.1l-57-32.9c-21-12.1-34-34.6-34-58.8
		v-65.8c0-24.2,13-46.7,34-58.8l57-32.9c10.3-6,22.1-9.1,34-9.1c11.9,0,23.7,3.1,34,9.1l57,32.9c21,12.1,34,34.6,34,58.8v65.8
		c0,24.2-13,46.7-34,58.8l-57,32.9C187,272.8,175.3,276,163.3,276z"/>
	<radialGradient id="XMLID_4_" cx="145.6621" cy="-18.1786" r="435.4539" gradientUnits="userSpaceOnUse">
		<stop  offset="0" style="stop-color:#30303D"/>
		<stop  offset="1" style="stop-color:#1A1A23"/>
	</radialGradient>
	<path id="XMLID_194_" style="fill:url(#XMLID_4_);" d="M163.3,273c-11.4,0-22.6-3-32.5-8.7l-57-32.9c-20-11.6-32.5-33.1-32.5-56.2
		v-65.8c0-23.1,12.4-44.7,32.5-56.2l57-32.9c9.9-5.7,21.1-8.7,32.5-8.7c11.4,0,22.6,3,32.5,8.7l57,32.9c20,11.6,32.5,33.1,32.5,56.2
		v65.8c0,23.1-12.4,44.7-32.5,56.2l-57,32.9C186,270,174.7,273,163.3,273z"/>
	<g id="XMLID_192_" style="opacity:0.53;">
		<g>
			
				<image style="overflow:visible;" width="245.1" height="261.9" xlink:href="E6B644D0.png"  transform="matrix(1 0 0 1 40.7956 11.3308)"/>
		</g>
	</g>
	<linearGradient id="SVGID_2_" gradientUnits="userSpaceOnUse" x1="85.8934" y1="302.0201" x2="240.7881" y2="302.0201">
		<stop  offset="0" style="stop-color:#FFEB88"/>
		<stop  offset="0.2473" style="stop-color:#CF9A3C"/>
		<stop  offset="0.3925" style="stop-color:#8B4E10"/>
		<stop  offset="0.6075" style="stop-color:#C18022"/>
		<stop  offset="0.8763" style="stop-color:#7A3E0A"/>
		<stop  offset="1" style="stop-color:#C68A2C"/>
	</linearGradient>
	<path style="fill:url(#SVGID_2_);" d="M93.8,299.1c0,0.6-0.1,1.2-0.3,1.7c-0.2,0.5-0.5,1-0.9,1.4s-0.9,0.7-1.5,0.9
		c-0.6,0.2-1.3,0.3-2.1,0.3h-1.8v5.2c0,0,0,0.1,0,0.1s-0.1,0.1-0.1,0.1c0,0-0.1,0-0.2,0.1s-0.2,0-0.3,0c-0.1,0-0.2,0-0.3,0
		s-0.2,0-0.2-0.1c0,0-0.1,0-0.1-0.1s0-0.1,0-0.1v-12.8c0-0.3,0.1-0.4,0.2-0.5c0.1-0.1,0.3-0.1,0.4-0.1h2.8c0.3,0,0.5,0,0.8,0
		c0.3,0,0.6,0.1,0.9,0.2c0.3,0.1,0.7,0.2,1.1,0.5c0.4,0.2,0.7,0.5,0.9,0.8c0.3,0.3,0.5,0.7,0.6,1.1
		C93.7,298.1,93.8,298.6,93.8,299.1z M92.4,299.2c0-0.6-0.1-1.1-0.3-1.5c-0.2-0.4-0.5-0.7-0.9-0.9c-0.3-0.2-0.7-0.3-1-0.4
		c-0.4-0.1-0.7-0.1-1-0.1h-1.9v6H89c0.6,0,1.1-0.1,1.5-0.2c0.4-0.2,0.7-0.4,1-0.6c0.3-0.3,0.5-0.6,0.6-1S92.4,299.7,92.4,299.2z
		 M107.4,308.6c0,0,0,0.1,0,0.1c0,0-0.1,0.1-0.1,0.1c0,0-0.1,0-0.2,0.1c-0.1,0-0.2,0-0.3,0c-0.1,0-0.2,0-0.3,0s-0.2,0-0.2-0.1
		c-0.1,0-0.1-0.1-0.1-0.1c0-0.1-0.1-0.1-0.1-0.2l-1.3-3.3c-0.1-0.4-0.3-0.7-0.5-1.1c-0.2-0.3-0.4-0.6-0.6-0.9
		c-0.2-0.2-0.5-0.4-0.9-0.6c-0.3-0.1-0.7-0.2-1.2-0.2h-1.4v6.2c0,0,0,0.1,0,0.1s-0.1,0.1-0.1,0.1s-0.1,0-0.2,0.1s-0.2,0-0.3,0
		c-0.1,0-0.2,0-0.3,0c-0.1,0-0.2,0-0.2-0.1s-0.1,0-0.1-0.1s0-0.1,0-0.1v-12.8c0-0.3,0.1-0.4,0.2-0.5c0.1-0.1,0.3-0.1,0.4-0.1h2.6
		c0.3,0,0.6,0,0.8,0c0.2,0,0.4,0,0.6,0.1c0.5,0.1,1,0.2,1.4,0.4c0.4,0.2,0.7,0.5,1,0.8c0.3,0.3,0.4,0.6,0.6,1s0.2,0.8,0.2,1.2
		c0,0.5-0.1,0.9-0.2,1.2c-0.1,0.4-0.3,0.7-0.5,0.9s-0.5,0.5-0.8,0.7c-0.3,0.2-0.7,0.4-1.1,0.5c0.2,0.1,0.4,0.2,0.6,0.4
		c0.2,0.2,0.4,0.3,0.5,0.6c0.2,0.2,0.3,0.5,0.5,0.8s0.3,0.6,0.4,1l1.3,3.2c0.1,0.2,0.2,0.4,0.2,0.5
		C107.4,308.5,107.4,308.6,107.4,308.6z M105.1,298.8c0-0.6-0.1-1.1-0.4-1.5s-0.7-0.7-1.3-0.9c-0.2-0.1-0.4-0.1-0.7-0.1
		c-0.2,0-0.6,0-0.9,0h-1.7v5h2c0.5,0,1-0.1,1.4-0.2c0.4-0.1,0.7-0.3,0.9-0.5c0.3-0.2,0.4-0.5,0.6-0.8
		C105.1,299.5,105.1,299.2,105.1,298.8z M119.7,308.3c0,0.1,0,0.2,0,0.2s0,0.1-0.1,0.2s-0.1,0.1-0.1,0.1c0,0-0.1,0-0.1,0h-6.4
		c-0.1,0-0.3,0-0.4-0.1c-0.1-0.1-0.2-0.3-0.2-0.5v-12.4c0-0.3,0.1-0.4,0.2-0.5c0.1-0.1,0.3-0.1,0.4-0.1h6.3c0,0,0.1,0,0.1,0
		c0,0,0.1,0.1,0.1,0.1c0,0,0,0.1,0.1,0.2c0,0.1,0,0.2,0,0.3c0,0.1,0,0.2,0,0.2c0,0.1,0,0.1-0.1,0.2c0,0-0.1,0.1-0.1,0.1
		c0,0-0.1,0-0.1,0h-5.6v4.8h4.8c0.1,0,0.1,0,0.1,0s0.1,0.1,0.1,0.1c0,0,0,0.1,0.1,0.2c0,0.1,0,0.2,0,0.3c0,0.1,0,0.2,0,0.2
		c0,0.1,0,0.1-0.1,0.2c0,0-0.1,0.1-0.1,0.1s-0.1,0-0.1,0h-4.8v5.5h5.7c0,0,0.1,0,0.1,0c0,0,0.1,0.1,0.1,0.1c0,0,0.1,0.1,0.1,0.2
		S119.7,308.2,119.7,308.3z M139.2,308.7c0,0,0,0.1,0,0.1s-0.1,0.1-0.1,0.1s-0.1,0-0.2,0.1c-0.1,0-0.2,0-0.3,0c-0.1,0-0.2,0-0.3,0
		s-0.2,0-0.2-0.1c0,0-0.1,0-0.1-0.1s0-0.1,0-0.1v-12.4h0l-5.4,12.4c0,0,0,0.1-0.1,0.1c0,0-0.1,0-0.1,0.1c0,0-0.1,0-0.2,0
		s-0.1,0-0.2,0c-0.1,0-0.2,0-0.3,0c-0.1,0-0.1,0-0.2,0c0,0-0.1,0-0.1-0.1c0,0,0-0.1-0.1-0.1l-5.1-12.4h0v12.4c0,0,0,0.1,0,0.1
		s-0.1,0.1-0.1,0.1s-0.1,0-0.2,0.1s-0.2,0-0.3,0c-0.1,0-0.2,0-0.3,0s-0.1,0-0.2-0.1s-0.1,0-0.1-0.1c0,0,0-0.1,0-0.1v-12.8
		c0-0.3,0.1-0.4,0.2-0.5c0.1-0.1,0.3-0.1,0.4-0.1h0.7c0.2,0,0.3,0,0.5,0.1c0.1,0,0.3,0.1,0.4,0.2s0.2,0.2,0.3,0.3
		c0.1,0.1,0.1,0.2,0.2,0.4l4.5,10.9h0.1l4.7-10.8c0.1-0.2,0.1-0.3,0.2-0.4s0.2-0.2,0.3-0.3c0.1-0.1,0.2-0.1,0.3-0.1
		c0.1,0,0.2,0,0.3,0h0.8c0.1,0,0.1,0,0.2,0c0.1,0,0.1,0.1,0.2,0.1s0.1,0.1,0.1,0.2c0,0.1,0.1,0.2,0.1,0.3V308.7z M146.4,308.7
		c0,0,0,0.1,0,0.1s-0.1,0.1-0.1,0.1c0,0-0.1,0-0.2,0.1c-0.1,0-0.2,0-0.3,0c-0.1,0-0.2,0-0.3,0s-0.2,0-0.2-0.1c0,0-0.1,0-0.1-0.1
		s0-0.1,0-0.1v-13.3c0,0,0-0.1,0-0.1s0.1-0.1,0.1-0.1s0.1,0,0.2-0.1c0.1,0,0.2,0,0.3,0c0.1,0,0.2,0,0.3,0c0.1,0,0.1,0,0.2,0.1
		c0,0,0.1,0,0.1,0.1s0,0.1,0,0.1V308.7z M162.1,303.8c0,0.8-0.1,1.6-0.4,2.2s-0.6,1.2-1,1.6c-0.4,0.4-1,0.8-1.6,1
		c-0.6,0.2-1.3,0.3-2.1,0.3c-0.7,0-1.3-0.1-1.9-0.3s-1.1-0.5-1.5-1c-0.4-0.4-0.8-1-1-1.6c-0.2-0.6-0.4-1.4-0.4-2.2v-8.6
		c0,0,0-0.1,0-0.1s0.1-0.1,0.1-0.1s0.1,0,0.2-0.1c0.1,0,0.2,0,0.3,0c0.1,0,0.2,0,0.3,0s0.2,0,0.2,0.1c0,0,0.1,0,0.1,0.1s0,0.1,0,0.1
		v8.4c0,0.7,0.1,1.3,0.2,1.8c0.2,0.5,0.4,0.9,0.7,1.3s0.7,0.6,1.1,0.8c0.4,0.2,1,0.3,1.5,0.3c0.6,0,1.1-0.1,1.5-0.2
		c0.4-0.2,0.8-0.4,1.1-0.8c0.3-0.3,0.5-0.8,0.7-1.3s0.2-1.1,0.2-1.8v-8.5c0,0,0-0.1,0-0.1c0,0,0.1-0.1,0.1-0.1c0,0,0.1,0,0.2-0.1
		s0.2,0,0.3,0c0.1,0,0.2,0,0.3,0s0.2,0,0.2,0.1c0,0,0.1,0,0.1,0.1s0,0.1,0,0.1V303.8z M182.4,308.7c0,0,0,0.1,0,0.1
		s-0.1,0.1-0.1,0.1s-0.1,0-0.2,0.1c-0.1,0-0.2,0-0.3,0c-0.1,0-0.2,0-0.3,0s-0.2,0-0.2-0.1c0,0-0.1,0-0.1-0.1s0-0.1,0-0.1v-12.4h0
		l-5.4,12.4c0,0,0,0.1-0.1,0.1c0,0-0.1,0-0.1,0.1c0,0-0.1,0-0.2,0s-0.1,0-0.2,0c-0.1,0-0.2,0-0.3,0c-0.1,0-0.1,0-0.2,0
		c0,0-0.1,0-0.1-0.1c0,0,0-0.1-0.1-0.1l-5.1-12.4h0v12.4c0,0,0,0.1,0,0.1s-0.1,0.1-0.1,0.1s-0.1,0-0.2,0.1c-0.1,0-0.2,0-0.3,0
		c-0.1,0-0.2,0-0.3,0c-0.1,0-0.1,0-0.2-0.1c0,0-0.1,0-0.1-0.1c0,0,0-0.1,0-0.1v-12.8c0-0.3,0.1-0.4,0.2-0.5c0.1-0.1,0.3-0.1,0.4-0.1
		h0.7c0.2,0,0.3,0,0.5,0.1c0.1,0,0.3,0.1,0.4,0.2c0.1,0.1,0.2,0.2,0.3,0.3c0.1,0.1,0.1,0.2,0.2,0.4l4.5,10.9h0.1l4.7-10.8
		c0.1-0.2,0.1-0.3,0.2-0.4c0.1-0.1,0.2-0.2,0.3-0.3s0.2-0.1,0.3-0.1c0.1,0,0.2,0,0.3,0h0.8c0.1,0,0.1,0,0.2,0c0.1,0,0.1,0.1,0.2,0.1
		s0.1,0.1,0.1,0.2c0,0.1,0.1,0.2,0.1,0.3V308.7z M195.6,308.7c0,0,0,0.1,0,0.1s-0.1,0.1-0.1,0.1c0,0-0.1,0-0.2,0.1
		c-0.1,0-0.2,0-0.3,0c-0.1,0-0.2,0-0.3,0s-0.2,0-0.2-0.1c0,0-0.1,0-0.1-0.1s0-0.1,0-0.1v-13.3c0,0,0-0.1,0-0.1c0,0,0.1-0.1,0.1-0.1
		s0.1,0,0.2-0.1c0.1,0,0.2,0,0.3,0c0.1,0,0.2,0,0.3,0c0.1,0,0.1,0,0.2,0.1c0,0,0.1,0,0.1,0.1s0,0.1,0,0.1V308.7z M210.5,307
		c0,0.1,0,0.1,0,0.2c0,0.1,0,0.1,0,0.2c0,0,0,0.1-0.1,0.1c0,0-0.1,0.1-0.1,0.2c-0.1,0.1-0.2,0.2-0.4,0.3c-0.2,0.2-0.5,0.3-0.9,0.5
		s-0.7,0.3-1.2,0.4c-0.4,0.1-0.9,0.2-1.5,0.2c-0.9,0-1.6-0.2-2.3-0.5c-0.7-0.3-1.3-0.7-1.8-1.3c-0.5-0.6-0.9-1.3-1.1-2.1
		c-0.3-0.8-0.4-1.8-0.4-2.9c0-1.1,0.1-2.1,0.4-3c0.3-0.9,0.7-1.6,1.2-2.3c0.5-0.6,1.1-1.1,1.8-1.4c0.7-0.3,1.5-0.5,2.4-0.5
		c0.4,0,0.8,0,1.2,0.1s0.7,0.2,1.1,0.3c0.3,0.1,0.6,0.3,0.9,0.4c0.3,0.2,0.4,0.3,0.5,0.4s0.2,0.2,0.2,0.2s0,0.1,0.1,0.1
		c0,0.1,0,0.1,0,0.2c0,0.1,0,0.1,0,0.2c0,0.1,0,0.2,0,0.3s0,0.1-0.1,0.2s-0.1,0.1-0.1,0.1c0,0-0.1,0-0.1,0c-0.1,0-0.2-0.1-0.4-0.2
		s-0.4-0.3-0.7-0.5s-0.7-0.3-1.1-0.5c-0.4-0.1-0.9-0.2-1.5-0.2c-0.6,0-1.2,0.1-1.8,0.4c-0.5,0.3-1,0.6-1.4,1.1s-0.7,1.1-0.9,1.9
		s-0.3,1.6-0.3,2.5c0,0.9,0.1,1.7,0.3,2.4c0.2,0.7,0.5,1.3,0.9,1.8c0.4,0.5,0.8,0.9,1.4,1.1c0.6,0.3,1.2,0.4,1.9,0.4
		c0.6,0,1.1-0.1,1.5-0.2c0.4-0.1,0.8-0.3,1.1-0.5s0.6-0.3,0.7-0.5s0.3-0.2,0.5-0.2c0,0,0.1,0,0.1,0c0,0,0.1,0,0.1,0.1
		c0,0,0,0.1,0,0.2C210.5,306.8,210.5,306.9,210.5,307z M225.9,301.9c0,1.1-0.1,2.1-0.4,3c-0.3,0.9-0.6,1.6-1.1,2.3
		c-0.5,0.6-1.1,1.1-1.9,1.4s-1.7,0.5-2.7,0.5c-1,0-1.9-0.2-2.6-0.5c-0.7-0.3-1.3-0.8-1.8-1.4c-0.5-0.6-0.8-1.3-1-2.2
		s-0.3-1.8-0.3-2.9c0-1.1,0.1-2,0.4-2.9s0.6-1.6,1.1-2.2s1.1-1.1,1.9-1.4c0.8-0.3,1.7-0.5,2.7-0.5c1,0,1.9,0.2,2.6,0.5
		c0.7,0.3,1.3,0.8,1.8,1.4c0.5,0.6,0.8,1.3,1.1,2.2C225.7,299.8,225.9,300.8,225.9,301.9z M224.5,302c0-0.8-0.1-1.6-0.2-2.3
		c-0.2-0.7-0.4-1.3-0.8-1.9c-0.3-0.5-0.8-0.9-1.4-1.2c-0.6-0.3-1.3-0.5-2.1-0.5c-0.8,0-1.6,0.2-2.1,0.5c-0.6,0.3-1.1,0.7-1.4,1.3
		s-0.6,1.1-0.8,1.9c-0.2,0.7-0.2,1.5-0.2,2.2c0,0.8,0.1,1.6,0.2,2.3s0.4,1.3,0.7,1.9s0.8,0.9,1.4,1.2c0.6,0.3,1.3,0.5,2.2,0.5
		c0.9,0,1.6-0.2,2.2-0.5c0.6-0.3,1.1-0.8,1.4-1.3c0.4-0.5,0.6-1.2,0.8-1.9C224.4,303.5,224.5,302.8,224.5,302z M240.8,308.2
		c0,0.1,0,0.2-0.1,0.3c0,0.1-0.1,0.2-0.1,0.2c-0.1,0.1-0.1,0.1-0.2,0.1c-0.1,0-0.1,0-0.2,0h-0.3c-0.1,0-0.3,0-0.4-0.1
		c-0.1,0-0.2-0.1-0.3-0.2c-0.1-0.1-0.2-0.2-0.3-0.4c-0.1-0.1-0.2-0.3-0.4-0.6l-4.8-8.6c-0.2-0.4-0.5-0.8-0.7-1.3
		c-0.2-0.4-0.5-0.9-0.7-1.3h0c0,0.5,0,1,0,1.6c0,0.5,0,1.1,0,1.6v8.9c0,0,0,0.1,0,0.1s-0.1,0.1-0.1,0.1c0,0-0.1,0-0.2,0.1
		c-0.1,0-0.2,0-0.3,0c-0.1,0-0.2,0-0.3,0s-0.2,0-0.2-0.1s-0.1,0-0.1-0.1s0-0.1,0-0.1v-12.8c0-0.3,0.1-0.4,0.2-0.5
		c0.1-0.1,0.3-0.1,0.4-0.1h0.5c0.2,0,0.3,0,0.4,0c0.1,0,0.2,0.1,0.3,0.1c0.1,0.1,0.2,0.2,0.3,0.3s0.2,0.3,0.3,0.5l3.7,6.6
		c0.2,0.4,0.5,0.8,0.7,1.2c0.2,0.4,0.4,0.7,0.6,1.1c0.2,0.4,0.4,0.7,0.6,1.1s0.4,0.7,0.6,1.1h0c0-0.6,0-1.2,0-1.9c0-0.6,0-1.3,0-1.9
		v-8c0,0,0-0.1,0-0.1s0.1-0.1,0.1-0.1c0,0,0.1,0,0.2-0.1c0.1,0,0.2,0,0.3,0c0.1,0,0.2,0,0.3,0s0.2,0,0.2,0.1c0,0,0.1,0.1,0.1,0.1
		s0,0.1,0,0.1V308.2z"/>
</g>
<linearGradient id="SVGID_3_" gradientUnits="userSpaceOnUse" x1="91.5727" y1="149.3525" x2="235.2084" y2="149.3525">
	<stop  offset="0" style="stop-color:#FFEB88"/>
	<stop  offset="0.2473" style="stop-color:#CF9A3C"/>
	<stop  offset="0.3925" style="stop-color:#8B4E10"/>
	<stop  offset="0.6075" style="stop-color:#C18022"/>
	<stop  offset="0.8649" style="stop-color:#7A3E0A"/>
	<stop  offset="1" style="stop-color:#C68A2C"/>
</linearGradient>
<path style="fill:none;stroke:url(#SVGID_3_);stroke-width:3;stroke-miterlimit:10;" d="M233.4,150.7L200.8,132v-3.7h2.3v-7h1.5
	c0-2.3-2.2-4.9-4.9-4.9s-4.9,2.6-4.9,4.9h1.5v7h2.3v2.3l-14-8V119h2.3v-7h1.5c0-2.3-2.2-4.9-4.9-4.9s-4.9,2.6-4.9,4.9h1.5v7h2.3v2.3
	l-7.5-4.3c0-33.3-11.1-38.6-11.1-38.6s-11.1,5.3-11.1,38.6l-7.5,4.3V119h2.3v-7h1.5c0-2.3-2.2-4.9-4.9-4.9s-4.9,2.6-4.9,4.9h1.5v7
	h2.3v3.6l-14,8v-2.3h2.3v-7h1.5c0-2.3-2.2-4.9-4.9-4.9c-2.7,0-4.9,2.6-4.9,4.9h1.5v7h2.3v3.7l-32.6,18.7v3.2c0,0-0.7,3.8-0.7,6.4
	l3.1-1.2l2.8,1.2l0.6-2.9l15.1-3.7v6.5c0,0.4,0.3,0.7,0.7,0.7h1c0.4,0,0.7-0.3,0.7-0.7v-7.1l11.6-2.8v5.2c0,0.4,0.3,0.7,0.7,0.7h1
	c0.4,0,0.7-0.3,0.7-0.7v-5.8l11.6-2.8v4c0,0.4,0.3,0.7,0.7,0.7h1c0.4,0,0.7-0.3,0.7-0.7v-4.6l6.7-1.6c0,0,0.4,4.9,2.8,7.3
	c0,0,0.3,9.9,0.3,22.5c0,12.7,4.9,25.5,4.9,25.5l-22,13.7l-0.1,6.4l24.7-6.1c0,0-1,4.2,1.3,5.5c2.3-1.3,1-5.5,1-5.5l24.3,6.1
	l-0.1-6.4l-22-13.7c0,0,4.9-12.8,4.9-25.5c0-12.7,0.3-22.5,0.3-22.5c2.4-2.4,2.8-7.3,2.8-7.3l7.4,1.8v4.4c0,0.4,0.3,0.7,0.7,0.7h1
	c0.4,0,0.7-0.3,0.7-0.7v-3.8l11.6,2.8v5.7c0,0.4,0.3,0.7,0.7,0.7h1c0.4,0,0.7-0.3,0.7-0.7v-5.1l11.6,2.8v6.9c0,0.4,0.3,0.7,0.7,0.7
	h1c0.4,0,0.7-0.3,0.7-0.7v-6.4l14.5,3.5l0.6,2.9l2.8-1.2l3.3,1.2c0-2.6-0.3-6.4-0.3-6.4L233.4,150.7L233.4,150.7z"/>
</svg>
